<mxfile host="app.diagrams.net" modified="2023-05-06T10:47:48.479Z" agent="Mozilla/5.0 (Windows NT 10.0; Win64; x64) AppleWebKit/537.36 (KHTML, like Gecko) Chrome/112.0.0.0 Safari/537.36 Edg/112.0.1722.64" version="21.2.9" etag="Si7yWMrTWBEmH0XjpCTQ" type="github">
  <diagram name="第 1 页" id="pGJYYXSBSc0tr8EckCE0">
    <mxGraphModel>
      <root>
        <mxCell id="0" />
        <mxCell id="1" parent="0" />
      </root>
    </mxGraphModel>
  </diagram>
</mxfile>
